<svg xmlns="http://www.w3.org/2000/svg" viewBox="0 0 20 20" width="20" height="20" fill="currentColor"><path d="M10 3.2498C6.27208 3.2498 3.2500033333333334 6.271876666666667 3.2500033333333334 9.999833333333335C3.2500033333333334 13.7277 6.27208 16.749833333333335 10 16.749833333333335C11.863816666666667 16.749833333333335 13.549933333333335 15.995416666666666 14.772250000000001 14.773516666666668C15.065133333333334 14.480716666666668 15.540016666666666 14.480783333333335 15.832899999999999 14.773666666666667C16.1257 15.066616666666668 16.125616666666666 15.541516666666666 15.832683333333335 15.834383333333333C14.340650000000002 17.325916666666668 12.277516666666667 18.249833333333335 10 18.249833333333335C5.443651666666667 18.249833333333335 1.7500033333333336 14.556150000000002 1.7500033333333336 9.999833333333335C1.7500033333333336 5.4434483333333334 5.443651666666667 1.7498000000000002 10 1.7498000000000002C14.55631666666667 1.7498000000000002 18.25 5.4434483333333334 18.25 9.999833333333335C18.25 10.309033333333334 18.232933333333335 10.614633333333334 18.199683333333333 10.915516666666667C18.15415 11.327266666666667 17.7835 11.624116666666666 17.371833333333335 11.578583333333334C16.960150000000002 11.533066666666667 16.663233333333334 11.162416666666667 16.708750000000002 10.750733333333335C16.736 10.50445 16.750000000000004 10.2539 16.750000000000004 9.999833333333335C16.750000000000004 6.271876666666667 13.72793333333333 3.2498 10 3.2498z" fill=""></path><path d="M15.303016666666668 9.052766666666667C15.595883333333335 8.759883333333335 16.070783333333335 8.759883333333335 16.363666666666667 9.052766666666667L17.5 10.1891L18.63635 9.052766666666667C18.92921666666667 8.759883333333335 19.404116666666667 8.759883333333335 19.697 9.052766666666667C19.989866666666668 9.345716666666666 19.989866666666668 9.820533333333334 19.697 10.113483333333333L18.17765 11.632816666666667C17.803383333333336 12.007033333333334 17.196633333333335 12.007033333333334 16.82235 11.632816666666667L15.303016666666668 10.113483333333333C15.010133333333336 9.820533333333334 15.010133333333336 9.345716666666666 15.303016666666668 9.052766666666667z" fill=""></path><path d="M12.582683333333334 9.2544C13.156600000000001 9.585700000000001 13.156600000000001 10.414116666666667 12.582683333333334 10.745416666666667L9.353066666666667 12.610066666666667C8.779166666666667 12.941366666666667 8.061775 12.527183333333333 8.061775 11.864516666666667L8.061775 8.135320000000002C8.061775 7.472611666666666 8.779166666666667 7.058418333333334 9.353066666666667 7.389770000000001L12.582683333333334 9.2544z" fill=""></path></svg>